<svg xmlns="http://www.w3.org/2000/svg" xmlns:xlink="http://www.w3.org/1999/xlink" width="91" height="91" viewBox="0 0 91 91">
    <defs>
        <style>
            .cls-1{fill:url(#linear-gradient)}.cls-2{clip-path:url(#clip-path)}.cls-3{fill:none}.cls-4{fill:url(#linear-gradient-2)}
        </style>
        <linearGradient id="linear-gradient" x1=".5" x2=".5" y1=".956" gradientUnits="objectBoundingBox">
            <stop offset="0" stop-color="#ff82ee"/>
            <stop offset=".289" stop-color="#ef8fec"/>
            <stop offset="1" stop-color="#86e5dd"/>
        </linearGradient>
        <clipPath id="clip-path">
            <circle id="Elipse_22" cx="45.5" cy="45.5" r="45.5" class="cls-1" data-name="Elipse 22" transform="translate(100 241)"/>
        </clipPath>
        <linearGradient id="linear-gradient-2" x1=".473" y1="1" y2=".047" xlink:href="#linear-gradient"/>
    </defs>
    <g id="Enmascarar_grupo_9" class="cls-2" data-name="Enmascarar grupo 9" transform="translate(-100 -241)">
        <g id="baseline-add_alert-24px" transform="translate(100 241)">
            <path id="Trazado_57" d="M0 0h91v91H0z" class="cls-3" data-name="Trazado 57"/>
            <path id="Trazado_58" d="M37.955 79.663a7.545 7.545 0 1 0 15.091 0zm33.632-15.887V41.708a26.062 26.062 0 0 0-20.058-25.366v-2.73a6.029 6.029 0 0 0-12.058 0v2.73a26.062 26.062 0 0 0-20.058 25.366v22.068l-8.038 8.038v4.019h68.25v-4.019zM60.667 49.33H49.292V60.7h-7.584V49.33H30.333v-7.622h11.375V30.333h7.583v11.375h11.376z" class="cls-4" data-name="Trazado 58"/>
        </g>
    </g>
</svg>
